<?xml version="1.0" encoding="UTF-8"?>
<!DOCTYPE svg PUBLIC "-//W3C//DTD SVG 1.1//EN" "http://www.w3.org/Graphics/SVG/1.1/DTD/svg11.dtd">
<svg xmlns="http://www.w3.org/2000/svg" version="1.1" width="512px" height="512px" style="shape-rendering:geometricPrecision; text-rendering:geometricPrecision; image-rendering:optimizeQuality; fill-rule:evenodd; clip-rule:evenodd" xmlns:xlink="http://www.w3.org/1999/xlink">
<g><path style="opacity:0.998" fill="#c0b3df" d="M 133.5,-0.5 C 145.167,-0.5 156.833,-0.5 168.5,-0.5C 198.609,3.14762 225.609,14.3143 249.5,33C 251.459,33.9309 253.459,34.7643 255.5,35.5C 262.882,31.6223 269.882,27.1223 276.5,22C 297.349,9.77265 319.683,2.27265 343.5,-0.5C 354.833,-0.5 366.167,-0.5 377.5,-0.5C 431.862,8.02612 465.695,39.0261 479,92.5C 487.817,179.389 460.984,253.222 398.5,314C 361.604,348.282 318.27,370.115 268.5,379.5C 262.529,380.241 256.529,380.575 250.5,380.5C 191.132,371.402 140.966,345.069 100,301.5C 46.891,243.842 23.891,175.842 31,97.5C 38.8092,53.6843 63.3092,23.5177 104.5,7C 114.115,3.7843 123.782,1.2843 133.5,-0.5 Z"/></g>
<g><path style="opacity:1" fill="#e5e5f9" d="M 249.5,133.5 C 278.093,132.935 295.26,146.602 301,174.5C 301.429,200.744 288.929,217.244 263.5,224C 233.55,225.928 215.717,212.095 210,182.5C 210.503,155.841 223.67,139.507 249.5,133.5 Z"/></g>
<g><path style="opacity:1" fill="#e5e5f9" d="M 338.5,139.5 C 345.401,138.743 349.401,141.743 350.5,148.5C 363.162,147.917 373.329,152.584 381,162.5C 398.954,155.597 412.62,160.597 422,177.5C 423.908,184.81 423.908,192.144 422,199.5C 419.333,209.5 416.667,219.5 414,229.5C 411.031,236.048 406.197,237.881 399.5,235C 396.906,231.949 396.073,228.449 397,224.5C 400.231,212.509 403.398,200.509 406.5,188.5C 404.846,179.509 399.512,175.676 390.5,177C 387.722,178.112 385.555,179.945 384,182.5C 380.746,194.103 377.746,205.77 375,217.5C 371.495,226.893 365.828,228.56 358,222.5C 357.333,218.5 357.333,214.5 358,210.5C 361.467,199.498 364.301,188.332 366.5,177C 366.041,169.985 362.208,166.152 355,165.5C 350.678,165.816 347.345,167.816 345,171.5C 341.126,185.199 337.126,198.866 333,212.5C 329.163,215.667 324.996,216.167 320.5,214C 317.013,209.212 316.513,204.045 319,198.5C 324,180.167 329,161.833 334,143.5C 335.667,142.267 337.167,140.933 338.5,139.5 Z"/></g>
<g><path style="opacity:1" fill="#e5e5f9" d="M 148.5,148.5 C 165.196,146.76 177.03,153.427 184,168.5C 186.843,180.205 189.843,191.871 193,203.5C 194.359,212.647 190.526,216.48 181.5,215C 180.333,213.833 179.167,212.667 178,211.5C 173.749,198.25 169.749,184.916 166,171.5C 161.945,166.684 156.778,165.184 150.5,167C 146.597,169.405 144.597,172.905 144.5,177.5C 146.764,188.654 149.597,199.654 153,210.5C 153.667,214.5 153.667,218.5 153,222.5C 145.068,228.894 139.402,227.228 136,217.5C 133.254,205.77 130.254,194.103 127,182.5C 120,174.5 113,174.5 106,182.5C 105.042,184.199 104.542,186.033 104.5,188C 107.538,200.189 110.705,212.356 114,224.5C 115.047,235.064 110.547,238.564 100.5,235C 98.3314,232.181 96.8314,229.014 96,225.5C 91.8021,207.708 87.1354,190.042 82,172.5C 81.3948,163.096 85.5615,159.596 94.5,162C 95.6667,163.167 96.8333,164.333 98,165.5C 108.166,158.664 118.999,157.664 130.5,162.5C 135.12,155.88 141.12,151.213 148.5,148.5 Z"/></g>
<g><path style="opacity:1" fill="#c0b5e0" d="M 249.5,150.5 C 273.169,150.334 284.336,162.001 283,185.5C 277.558,201.612 266.391,208.779 249.5,207C 233.077,201.33 225.911,189.83 228,172.5C 231.315,161.352 238.482,154.019 249.5,150.5 Z"/></g>
<g><path style="opacity:1" fill="#e5e4f9" d="M 152.5,269.5 C 155.187,269.336 157.854,269.503 160.5,270C 202.576,309.598 250.909,319.598 305.5,300C 322.383,292.776 337.383,282.776 350.5,270C 361.073,268.912 364.573,273.412 361,283.5C 317.179,324.496 266.346,336.663 208.5,320C 186.033,312.52 166.533,300.353 150,283.5C 147.418,278.12 148.251,273.453 152.5,269.5 Z"/></g>
<g><path style="opacity:0.98" fill="#c8a8f7" d="M 268.5,379.5 C 266.477,398.383 267.644,417.049 272,435.5C 290.956,424.355 310.79,422.522 331.5,430C 355.984,443.458 364.484,463.625 357,490.5C 350.825,501.519 341.659,508.519 329.5,511.5C 321.833,511.5 314.167,511.5 306.5,511.5C 299.774,509.809 293.441,506.976 287.5,503C 274.959,492.741 266.292,479.908 261.5,464.5C 251.488,470.32 241.821,476.82 232.5,484C 220.947,492.279 208.613,499.279 195.5,505C 168.478,515.101 145.978,508.934 128,486.5C 119.514,474.695 113.014,461.862 108.5,448C 110.001,440.845 114.334,438.179 121.5,440C 123,441.5 124.5,443 126,444.5C 131.712,460.104 140.545,473.604 152.5,485C 164.687,492.992 177.354,493.659 190.5,487C 213.453,475.041 234.787,460.874 254.5,444.5C 249.58,423.389 248.247,402.056 250.5,380.5C 256.529,380.575 262.529,380.241 268.5,379.5 Z M 299.5,443.5 C 323.397,440.922 337.731,451.255 342.5,474.5C 341.423,485.41 335.423,491.577 324.5,493C 306.408,495.538 293.241,488.705 285,472.5C 281.748,466.497 278.914,460.331 276.5,454C 283.76,449.366 291.427,445.866 299.5,443.5 Z"/></g>
</svg>
